<?xml version="1.0" encoding="UTF-8" standalone="no"?>
<!DOCTYPE svg PUBLIC "-//W3C//DTD SVG 1.1//EN"
 "http://www.w3.org/Graphics/SVG/1.1/DTD/svg11.dtd">
<!-- Generated by graphviz version 14.1.4 (20260321.0153)
 -->
<!-- Title: system_overview Pages: 1 -->
<svg width="688pt" height="380pt"
 viewBox="0.00 0.00 688.00 380.00" xmlns="http://www.w3.org/2000/svg" xmlns:xlink="http://www.w3.org/1999/xlink">
<g id="graph0" class="graph" transform="scale(1 1) rotate(0) translate(4 375.84)">
<title>system_overview</title>
<g id="clust1" class="cluster">
<title>cluster_host</title>
<path fill="none" stroke="#9aa8b8" d="M316,-98.46C316,-98.46 660,-98.46 660,-98.46 666,-98.46 672,-104.46 672,-110.46 672,-110.46 672,-283.38 672,-283.38 672,-289.38 666,-295.38 660,-295.38 660,-295.38 316,-295.38 316,-295.38 310,-295.38 304,-289.38 304,-283.38 304,-283.38 304,-110.46 304,-110.46 304,-104.46 310,-98.46 316,-98.46"/>
<text xml:space="preserve" text-anchor="middle" x="488" y="-280.93" font-family="Helvetica,sans-Serif" font-size="11.00" fill="#3a4757">Host — the only tier that may include SDL or Qt</text>
</g>
<g id="clust2" class="cluster">
<title>cluster_core</title>
<path fill="none" stroke="#9aa8b8" d="M20,-8C20,-8 284,-8 284,-8 290,-8 296,-14 296,-20 296,-20 296,-177.42 296,-177.42 296,-183.42 290,-189.42 284,-189.42 284,-189.42 20,-189.42 20,-189.42 14,-189.42 8,-183.42 8,-177.42 8,-177.42 8,-20 8,-20 8,-14 14,-8 20,-8"/>
<text xml:space="preserve" text-anchor="middle" x="152" y="-174.97" font-family="Helvetica,sans-Serif" font-size="11.00" fill="#3a4757">Emulator core — pure C++17, no platform headers</text>
</g>
<!-- qt -->
<g id="node1" class="node">
<title>qt</title>
<path fill="#e3ecf7" stroke="#5a6b80" d="M651.77,-265.88C651.77,-265.88 576.23,-265.88 576.23,-265.88 570.23,-265.88 564.23,-259.88 564.23,-253.88 564.23,-253.88 564.23,-237.92 564.23,-237.92 564.23,-231.92 570.23,-225.92 576.23,-225.92 576.23,-225.92 651.77,-225.92 651.77,-225.92 657.77,-225.92 663.77,-231.92 663.77,-237.92 663.77,-237.92 663.77,-253.88 663.77,-253.88 663.77,-259.88 657.77,-265.88 651.77,-265.88"/>
<text xml:space="preserve" text-anchor="middle" x="614" y="-248.95" font-family="Helvetica,sans-Serif" font-size="11.00" fill="#1b2430">Qt GUI frontend</text>
<text xml:space="preserve" text-anchor="middle" x="614" y="-235.45" font-family="Helvetica,sans-Serif" font-size="11.00" fill="#1b2430">src/gui</text>
</g>
<!-- dbg -->
<g id="node4" class="node">
<title>dbg</title>
<path fill="#e3ecf7" stroke="#5a6b80" d="M652.27,-159.92C652.27,-159.92 531.73,-159.92 531.73,-159.92 525.73,-159.92 519.73,-153.92 519.73,-147.92 519.73,-147.92 519.73,-118.46 519.73,-118.46 519.73,-112.46 525.73,-106.46 531.73,-106.46 531.73,-106.46 652.27,-106.46 652.27,-106.46 658.27,-106.46 664.27,-112.46 664.27,-118.46 664.27,-118.46 664.27,-147.92 664.27,-147.92 664.27,-153.92 658.27,-159.92 652.27,-159.92"/>
<text xml:space="preserve" text-anchor="middle" x="592" y="-142.99" font-family="Helvetica,sans-Serif" font-size="11.00" fill="#1b2430">Debugger UI</text>
<text xml:space="preserve" text-anchor="middle" x="592" y="-129.49" font-family="Helvetica,sans-Serif" font-size="11.00" fill="#1b2430">src/debugger</text>
<text xml:space="preserve" text-anchor="middle" x="592" y="-115.99" font-family="Helvetica,sans-Serif" font-size="11.00" fill="#1b2430">(ENABLE_DEBUGGER)</text>
</g>
<!-- qt&#45;&gt;dbg -->
<g id="edge5" class="edge">
<title>qt&#45;&gt;dbg</title>
<path fill="none" stroke="#5a6b80" stroke-dasharray="5,2" d="M610.17,-225.62C606.57,-207.53 601.17,-180.33 597.19,-160.3"/>
</g>
<!-- emu -->
<g id="node6" class="node">
<title>emu</title>
<path fill="#f6efdc" stroke="#5a6b80" d="M276.27,-159.92C276.27,-159.92 101.73,-159.92 101.73,-159.92 95.73,-159.92 89.73,-153.92 89.73,-147.92 89.73,-147.92 89.73,-118.46 89.73,-118.46 89.73,-112.46 95.73,-106.46 101.73,-106.46 101.73,-106.46 276.27,-106.46 276.27,-106.46 282.27,-106.46 288.27,-112.46 288.27,-118.46 288.27,-118.46 288.27,-147.92 288.27,-147.92 288.27,-153.92 282.27,-159.92 276.27,-159.92"/>
<text xml:space="preserve" text-anchor="middle" x="189" y="-142.99" font-family="Helvetica,sans-Serif" font-size="11.00" fill="#1b2430">Emulator</text>
<text xml:space="preserve" text-anchor="middle" x="189" y="-129.49" font-family="Helvetica,sans-Serif" font-size="11.00" fill="#1b2430">src/core/emulator.{h,cpp}</text>
<text xml:space="preserve" text-anchor="middle" x="189" y="-115.99" font-family="Helvetica,sans-Serif" font-size="11.00" fill="#1b2430">owns every subsystem, runs a frame</text>
</g>
<!-- qt&#45;&gt;emu -->
<g id="edge6" class="edge">
<title>qt&#45;&gt;emu</title>
<path fill="none" stroke="#5a6b80" d="M563.9,-228.34C560.9,-227.49 557.92,-226.67 555,-225.92 491.41,-209.5 475.09,-206.15 410,-197.42 361.42,-190.9 347.28,-202.36 300,-189.42 280.12,-183.98 259.59,-174.88 241.67,-165.63"/>
<polygon fill="#5a6b80" stroke="#5a6b80" points="243.53,-162.65 233.06,-161.05 240.25,-168.84 243.53,-162.65"/>
<text xml:space="preserve" text-anchor="middle" x="508.96" y="-199.37" font-family="Helvetica,sans-Serif" font-size="9.00" fill="#3a4757"> &#160;run one frame</text>
</g>
<!-- sdl -->
<g id="node2" class="node">
<title>sdl</title>
<path fill="#e3ecf7" stroke="#5a6b80" d="M387.77,-265.88C387.77,-265.88 324.23,-265.88 324.23,-265.88 318.23,-265.88 312.23,-259.88 312.23,-253.88 312.23,-253.88 312.23,-237.92 312.23,-237.92 312.23,-231.92 318.23,-225.92 324.23,-225.92 324.23,-225.92 387.77,-225.92 387.77,-225.92 393.77,-225.92 399.77,-231.92 399.77,-237.92 399.77,-237.92 399.77,-253.88 399.77,-253.88 399.77,-259.88 393.77,-265.88 387.77,-265.88"/>
<text xml:space="preserve" text-anchor="middle" x="356" y="-248.95" font-family="Helvetica,sans-Serif" font-size="11.00" fill="#1b2430">SDL frontend</text>
<text xml:space="preserve" text-anchor="middle" x="356" y="-235.45" font-family="Helvetica,sans-Serif" font-size="11.00" fill="#1b2430">src/platform</text>
</g>
<!-- sdl&#45;&gt;emu -->
<g id="edge7" class="edge">
<title>sdl&#45;&gt;emu</title>
<path fill="none" stroke="#5a6b80" d="M337.18,-225.7C327.69,-216.56 315.73,-205.82 304,-197.42 288.05,-186 269.82,-175.11 252.65,-165.68"/>
<polygon fill="#5a6b80" stroke="#5a6b80" points="254.48,-162.7 244.02,-161.03 251.16,-168.86 254.48,-162.7"/>
<text xml:space="preserve" text-anchor="middle" x="346.94" y="-199.37" font-family="Helvetica,sans-Serif" font-size="9.00" fill="#3a4757"> &#160;run one frame</text>
</g>
<!-- head -->
<g id="node3" class="node">
<title>head</title>
<path fill="#e3ecf7" stroke="#5a6b80" d="M534.39,-265.88C534.39,-265.88 429.61,-265.88 429.61,-265.88 423.61,-265.88 417.61,-259.88 417.61,-253.88 417.61,-253.88 417.61,-237.92 417.61,-237.92 417.61,-231.92 423.61,-225.92 429.61,-225.92 429.61,-225.92 534.39,-225.92 534.39,-225.92 540.39,-225.92 546.39,-231.92 546.39,-237.92 546.39,-237.92 546.39,-253.88 546.39,-253.88 546.39,-259.88 540.39,-265.88 534.39,-265.88"/>
<text xml:space="preserve" text-anchor="middle" x="482" y="-248.95" font-family="Helvetica,sans-Serif" font-size="11.00" fill="#1b2430">headless</text>
<text xml:space="preserve" text-anchor="middle" x="482" y="-235.45" font-family="Helvetica,sans-Serif" font-size="11.00" fill="#1b2430">(no window, no audio)</text>
</g>
<!-- head&#45;&gt;emu -->
<g id="edge8" class="edge">
<title>head&#45;&gt;emu</title>
<path fill="none" stroke="#5a6b80" d="M448.88,-225.61C429.93,-215.49 405.34,-203.89 382,-197.42 346.71,-187.64 335.2,-199.52 300,-189.42 280.46,-183.81 260.22,-174.82 242.47,-165.71"/>
<polygon fill="#5a6b80" stroke="#5a6b80" points="244.14,-162.64 233.67,-161.06 240.87,-168.83 244.14,-162.64"/>
</g>
<!-- dbg&#45;&gt;emu -->
<g id="edge10" class="edge">
<title>dbg&#45;&gt;emu</title>
<path fill="none" stroke="#5a6b80" stroke-dasharray="1,5" d="M519.45,-133.19C455,-133.19 360.18,-133.19 288.62,-133.19"/>
<text xml:space="preserve" text-anchor="middle" x="404" y="-138.14" font-family="Helvetica,sans-Serif" font-size="9.00" fill="#3a4757"> &#160;introspects</text>
</g>
<!-- main -->
<g id="node5" class="node">
<title>main</title>
<path fill="#dfe8dd" stroke="#5a6b80" d="M566.27,-371.84C566.27,-371.84 397.73,-371.84 397.73,-371.84 391.73,-371.84 385.73,-365.84 385.73,-359.84 385.73,-359.84 385.73,-343.88 385.73,-343.88 385.73,-337.88 391.73,-331.88 397.73,-331.88 397.73,-331.88 566.27,-331.88 566.27,-331.88 572.27,-331.88 578.27,-337.88 578.27,-343.88 578.27,-343.88 578.27,-359.84 578.27,-359.84 578.27,-365.84 572.27,-371.84 566.27,-371.84"/>
<text xml:space="preserve" text-anchor="middle" x="482" y="-354.91" font-family="Helvetica,sans-Serif" font-size="11.00" fill="#1b2430">src/main.cpp</text>
<text xml:space="preserve" text-anchor="middle" x="482" y="-341.41" font-family="Helvetica,sans-Serif" font-size="11.00" fill="#1b2430">argument table + frontend selection</text>
</g>
<!-- main&#45;&gt;qt -->
<g id="edge2" class="edge">
<title>main&#45;&gt;qt</title>
<path fill="none" stroke="#5a6b80" stroke-dasharray="5,2" d="M507.86,-331.58C521.9,-321.02 539.51,-307.62 555,-295.38 563.88,-288.36 573.39,-280.64 582.14,-273.45"/>
<polygon fill="#5a6b80" stroke="#5a6b80" points="584.25,-276.24 589.74,-267.18 579.8,-270.84 584.25,-276.24"/>
<text xml:space="preserve" text-anchor="middle" x="579.19" y="-305.33" font-family="Helvetica,sans-Serif" font-size="9.00" fill="#3a4757"> &#160;ENABLE_QT_UI</text>
</g>
<!-- main&#45;&gt;sdl -->
<g id="edge3" class="edge">
<title>main&#45;&gt;sdl</title>
<path fill="none" stroke="#5a6b80" stroke-dasharray="5,2" d="M455.19,-331.4C441.19,-321.01 423.91,-307.82 409,-295.38 400.93,-288.65 392.43,-281.09 384.66,-273.99"/>
<polygon fill="#5a6b80" stroke="#5a6b80" points="387.08,-271.46 377.36,-267.25 382.33,-276.61 387.08,-271.46"/>
</g>
<!-- main&#45;&gt;head -->
<g id="edge4" class="edge">
<title>main&#45;&gt;head</title>
<path fill="none" stroke="#5a6b80" stroke-dasharray="5,2" d="M482,-331.79C482,-316.65 482,-295.17 482,-277.61"/>
<polygon fill="#5a6b80" stroke="#5a6b80" points="485.5,-277.71 482,-267.71 478.5,-277.71 485.5,-277.71"/>
</g>
<!-- emu&#45;&gt;qt -->
<g id="edge9" class="edge">
<title>emu&#45;&gt;qt</title>
<path fill="none" stroke="#5a6b80" stroke-dasharray="1,5" d="M230.82,-160.34C250.95,-171.5 275.9,-183.34 300,-189.42 352.6,-202.7 492.41,-180.64 544,-197.42 557.96,-201.96 571.7,-210.2 583.26,-218.55"/>
<polygon fill="#5a6b80" stroke="#5a6b80" points="581.13,-221.33 591.2,-224.6 585.37,-215.76 581.13,-221.33"/>
<text xml:space="preserve" text-anchor="middle" x="622.38" y="-199.37" font-family="Helvetica,sans-Serif" font-size="9.00" fill="#3a4757"> &#160;framebuffer, audio samples</text>
</g>
<!-- subs -->
<g id="node7" class="node">
<title>subs</title>
<path fill="#eef2f7" stroke="#5a6b80" d="M275.64,-69.46C275.64,-69.46 28.36,-69.46 28.36,-69.46 22.36,-69.46 16.35,-63.46 16.35,-57.46 16.35,-57.46 16.35,-28 16.35,-28 16.35,-22 22.35,-16 28.35,-16 28.35,-16 275.64,-16 275.64,-16 281.64,-16 287.64,-22 287.64,-28 287.64,-28 287.64,-57.46 287.64,-57.46 287.64,-63.46 281.64,-69.46 275.64,-69.46"/>
<text xml:space="preserve" text-anchor="middle" x="152" y="-52.53" font-family="Helvetica,sans-Serif" font-size="11.00" fill="#1b2430">subsystems</text>
<text xml:space="preserve" text-anchor="middle" x="152" y="-39.03" font-family="Helvetica,sans-Serif" font-size="11.00" fill="#1b2430">CPU · memory · video · audio · ports and NextREG</text>
<text xml:space="preserve" text-anchor="middle" x="152" y="-25.53" font-family="Helvetica,sans-Serif" font-size="11.00" fill="#1b2430">peripherals · input · debug backend</text>
</g>
<!-- emu&#45;&gt;subs -->
<g id="edge1" class="edge">
<title>emu&#45;&gt;subs</title>
<path fill="none" stroke="#9aa8b8" d="M178.1,-106.13C173.32,-94.71 167.73,-81.34 162.95,-69.91"/>
</g>
<!-- spec -->
<g id="node8" class="node">
<title>spec</title>
<polygon fill="#f3e6ea" stroke="#5a6b80" points="268.52,-265.88 65.48,-265.88 65.48,-225.92 274.52,-225.92 274.52,-259.88 268.52,-265.88"/>
<polyline fill="none" stroke="#5a6b80" points="268.52,-265.88 268.52,-259.88"/>
<polyline fill="none" stroke="#5a6b80" points="274.52,-259.88 268.52,-259.88"/>
<text xml:space="preserve" text-anchor="middle" x="170" y="-248.95" font-family="Helvetica,sans-Serif" font-size="11.00" fill="#1b2430">ZX Spectrum Next FPGA core (VHDL)</text>
<text xml:space="preserve" text-anchor="middle" x="170" y="-235.45" font-family="Helvetica,sans-Serif" font-size="11.00" fill="#1b2430">the authoritative specification</text>
</g>
<!-- spec&#45;&gt;emu -->
<g id="edge11" class="edge">
<title>spec&#45;&gt;emu</title>
<path fill="none" stroke="#a9707f" stroke-dasharray="5,2" d="M170.95,-225.88C171.56,-217.17 172.51,-206.73 174,-197.42 175.36,-188.92 177.24,-179.87 179.21,-171.35"/>
<polygon fill="#a9707f" stroke="#a9707f" points="182.61,-172.18 181.56,-161.64 175.81,-170.53 182.61,-172.18"/>
<text xml:space="preserve" text-anchor="middle" x="237" y="-199.37" font-family="Helvetica,sans-Serif" font-size="9.00" fill="#a9707f"> &#160;derived from, cited line by line</text>
</g>
</g>
</svg>
