<?xml version="1.0" encoding="UTF-8" standalone="no"?>
<!DOCTYPE svg PUBLIC "-//W3C//DTD SVG 1.1//EN"
 "http://www.w3.org/Graphics/SVG/1.1/DTD/svg11.dtd">
<!-- Generated by graphviz version 14.1.4 (20260321.0153)
 -->
<!-- Title: debug_layers Pages: 1 -->
<svg width="744pt" height="591pt"
 viewBox="0.00 0.00 744.00 591.00" xmlns="http://www.w3.org/2000/svg" xmlns:xlink="http://www.w3.org/1999/xlink">
<g id="graph0" class="graph" transform="scale(1 1) rotate(0) translate(4 587.38)">
<title>debug_layers</title>
<g id="clust1" class="cluster">
<title>cluster_frontends</title>
<path fill="none" stroke="#d3bdc0" d="M20,-491.86C20,-491.86 647,-491.86 647,-491.86 653,-491.86 659,-497.86 659,-503.86 659,-503.86 659,-563.38 659,-563.38 659,-569.38 653,-575.38 647,-575.38 647,-575.38 20,-575.38 20,-575.38 14,-575.38 8,-569.38 8,-563.38 8,-563.38 8,-503.86 8,-503.86 8,-497.86 14,-491.86 20,-491.86"/>
<text xml:space="preserve" text-anchor="middle" x="333.5" y="-561.88" font-family="Helvetica,sans-Serif" font-size="10.00" fill="#5a3f43">frontends — each one or more backend clients</text>
</g>
<g id="clust2" class="cluster">
<title>cluster_backend</title>
<path fill="none" stroke="#d3bdc0" d="M63,-86.02C63,-86.02 599,-86.02 599,-86.02 605,-86.02 611,-92.02 611,-98.02 611,-98.02 611,-242.06 611,-242.06 611,-248.06 605,-254.06 599,-254.06 599,-254.06 63,-254.06 63,-254.06 57,-254.06 51,-248.06 51,-242.06 51,-242.06 51,-98.02 51,-98.02 51,-92.02 57,-86.02 63,-86.02"/>
<text xml:space="preserve" text-anchor="middle" x="331" y="-240.56" font-family="Helvetica,sans-Serif" font-size="10.00" fill="#5a3f43">backend internals — src/debug (jnext_debug), never included by a frontend</text>
</g>
<!-- qt -->
<g id="node1" class="node">
<title>qt</title>
<path fill="#f7eef0" stroke="#8c6b70" d="M155.7,-547.38C155.7,-547.38 28.3,-547.38 28.3,-547.38 22.3,-547.38 16.3,-541.38 16.3,-535.38 16.3,-535.38 16.3,-511.86 16.3,-511.86 16.3,-505.86 22.3,-499.86 28.3,-499.86 28.3,-499.86 155.7,-499.86 155.7,-499.86 161.7,-499.86 167.7,-505.86 167.7,-511.86 167.7,-511.86 167.7,-535.38 167.7,-535.38 167.7,-541.38 161.7,-547.38 155.7,-547.38"/>
<text xml:space="preserve" text-anchor="start" x="26.38" y="-532.12" font-family="Helvetica,sans-Serif" font-size="10.00" fill="#2e1c1f">Qt debugger</text>
<text xml:space="preserve" text-anchor="start" x="26.38" y="-520.12" font-family="Helvetica,sans-Serif" font-size="10.00" fill="#2e1c1f">src/debugger (jnext_debugger)</text>
<text xml:space="preserve" text-anchor="start" x="26.38" y="-508.12" font-family="Helvetica,sans-Serif" font-size="10.00" fill="#2e1c1f">ENABLE_DEBUGGER</text>
</g>
<!-- facade -->
<g id="node7" class="node">
<title>facade</title>
<polygon fill="#e9d3d6" stroke="#8c6b70" points="499.97,-346.34 200.03,-346.34 196.03,-342.34 196.03,-281.06 495.97,-281.06 499.97,-285.06 499.97,-346.34"/>
<polyline fill="none" stroke="#8c6b70" points="495.97,-342.34 196.03,-342.34"/>
<polyline fill="none" stroke="#8c6b70" points="495.97,-342.34 495.97,-281.06"/>
<polyline fill="none" stroke="#8c6b70" points="495.97,-342.34 499.97,-346.34"/>
<text xml:space="preserve" text-anchor="start" x="211.88" y="-328.2" font-family="Helvetica,sans-Serif" font-size="10.00" fill="#2e1c1f">jnext::dbg::Debugger — the one facade</text>
<text xml:space="preserve" text-anchor="start" x="211.88" y="-316.2" font-family="Helvetica,sans-Serif" font-size="10.00" fill="#2e1c1f">debugger.h · events.h · inspect.h · result.h</text>
<text xml:space="preserve" text-anchor="start" x="211.88" y="-304.2" font-family="Helvetica,sans-Serif" font-size="10.00" fill="#2e1c1f">control · inspection + mutation · events · time · input + capture</text>
<text xml:space="preserve" text-anchor="start" x="211.88" y="-292.2" font-family="Helvetica,sans-Serif" font-size="10.00" fill="#2e1c1f">state + rewind · symbols · session</text>
</g>
<!-- qt&#45;&gt;facade -->
<g id="edge4" class="edge">
<title>qt&#45;&gt;facade</title>
<path fill="none" stroke="#8c6b70" d="M119.21,-499.51C147.83,-475.3 194.28,-436.28 235,-403.34 255.25,-386.96 277.79,-369.19 297.37,-353.89"/>
<polygon fill="#8c6b70" stroke="#8c6b70" points="299.51,-356.66 305.24,-347.75 295.21,-351.14 299.51,-356.66"/>
</g>
<!-- dzrp -->
<g id="node2" class="node">
<title>dzrp</title>
<path fill="#f7eef0" stroke="#8c6b70" d="M266.2,-547.38C266.2,-547.38 201.8,-547.38 201.8,-547.38 195.8,-547.38 189.8,-541.38 189.8,-535.38 189.8,-535.38 189.8,-511.86 189.8,-511.86 189.8,-505.86 195.8,-499.86 201.8,-499.86 201.8,-499.86 266.2,-499.86 266.2,-499.86 272.2,-499.86 278.2,-505.86 278.2,-511.86 278.2,-511.86 278.2,-535.38 278.2,-535.38 278.2,-541.38 272.2,-547.38 266.2,-547.38"/>
<text xml:space="preserve" text-anchor="start" x="199.88" y="-532.12" font-family="Helvetica,sans-Serif" font-size="10.00" fill="#2e1c1f">DZRP server</text>
<text xml:space="preserve" text-anchor="start" x="199.88" y="-520.12" font-family="Helvetica,sans-Serif" font-size="10.00" fill="#2e1c1f">src/remote/dzrp</text>
<text xml:space="preserve" text-anchor="start" x="199.88" y="-508.12" font-family="Helvetica,sans-Serif" font-size="10.00" fill="#2e1c1f">&#45;&#45;dzrp&#45;port</text>
</g>
<!-- transport -->
<g id="node6" class="node">
<title>transport</title>
<path fill="#f7eef0" stroke="#8c6b70" d="M437.58,-451.1C437.58,-451.1 258.42,-451.1 258.42,-451.1 252.42,-451.1 246.42,-445.1 246.42,-439.1 246.42,-439.1 246.42,-427.1 246.42,-427.1 246.42,-421.1 252.42,-415.1 258.42,-415.1 258.42,-415.1 437.58,-415.1 437.58,-415.1 443.58,-415.1 449.58,-421.1 449.58,-427.1 449.58,-427.1 449.58,-439.1 449.58,-439.1 449.58,-445.1 443.58,-451.1 437.58,-451.1"/>
<text xml:space="preserve" text-anchor="start" x="256.5" y="-435.6" font-family="Helvetica,sans-Serif" font-size="10.00" fill="#2e1c1f">remote::Server — shared socket transport</text>
<text xml:space="preserve" text-anchor="start" x="256.5" y="-423.6" font-family="Helvetica,sans-Serif" font-size="10.00" fill="#2e1c1f">src/remote (jnext_remote), a dbg::Service</text>
</g>
<!-- dzrp&#45;&gt;transport -->
<g id="edge1" class="edge">
<title>dzrp&#45;&gt;transport</title>
<path fill="none" stroke="#8c6b70" d="M263.95,-499.36C283.35,-484.3 308.18,-465.02 325.81,-451.33"/>
</g>
<!-- gdb -->
<g id="node3" class="node">
<title>gdb</title>
<path fill="#f7eef0" stroke="#8c6b70" d="M383.95,-547.38C383.95,-547.38 312.05,-547.38 312.05,-547.38 306.05,-547.38 300.05,-541.38 300.05,-535.38 300.05,-535.38 300.05,-511.86 300.05,-511.86 300.05,-505.86 306.05,-499.86 312.05,-499.86 312.05,-499.86 383.95,-499.86 383.95,-499.86 389.95,-499.86 395.95,-505.86 395.95,-511.86 395.95,-511.86 395.95,-535.38 395.95,-535.38 395.95,-541.38 389.95,-547.38 383.95,-547.38"/>
<text xml:space="preserve" text-anchor="start" x="310.12" y="-532.12" font-family="Helvetica,sans-Serif" font-size="10.00" fill="#2e1c1f">GDB RSP server</text>
<text xml:space="preserve" text-anchor="start" x="310.12" y="-520.12" font-family="Helvetica,sans-Serif" font-size="10.00" fill="#2e1c1f">src/remote/gdb</text>
<text xml:space="preserve" text-anchor="start" x="310.12" y="-508.12" font-family="Helvetica,sans-Serif" font-size="10.00" fill="#2e1c1f">&#45;&#45;gdb&#45;port</text>
</g>
<!-- gdb&#45;&gt;transport -->
<g id="edge2" class="edge">
<title>gdb&#45;&gt;transport</title>
<path fill="none" stroke="#8c6b70" d="M348,-499.36C348,-484.3 348,-465.02 348,-451.33"/>
</g>
<!-- zrcp -->
<g id="node4" class="node">
<title>zrcp</title>
<path fill="#f7eef0" stroke="#8c6b70" d="M494.2,-547.38C494.2,-547.38 429.8,-547.38 429.8,-547.38 423.8,-547.38 417.8,-541.38 417.8,-535.38 417.8,-535.38 417.8,-511.86 417.8,-511.86 417.8,-505.86 423.8,-499.86 429.8,-499.86 429.8,-499.86 494.2,-499.86 494.2,-499.86 500.2,-499.86 506.2,-505.86 506.2,-511.86 506.2,-511.86 506.2,-535.38 506.2,-535.38 506.2,-541.38 500.2,-547.38 494.2,-547.38"/>
<text xml:space="preserve" text-anchor="start" x="427.88" y="-532.12" font-family="Helvetica,sans-Serif" font-size="10.00" fill="#2e1c1f">ZRCP server</text>
<text xml:space="preserve" text-anchor="start" x="427.88" y="-520.12" font-family="Helvetica,sans-Serif" font-size="10.00" fill="#2e1c1f">src/remote/zrcp</text>
<text xml:space="preserve" text-anchor="start" x="427.88" y="-508.12" font-family="Helvetica,sans-Serif" font-size="10.00" fill="#2e1c1f">&#45;&#45;zrcp&#45;port</text>
</g>
<!-- zrcp&#45;&gt;transport -->
<g id="edge3" class="edge">
<title>zrcp&#45;&gt;transport</title>
<path fill="none" stroke="#8c6b70" d="M432.05,-499.36C412.65,-484.3 387.82,-465.02 370.19,-451.33"/>
</g>
<!-- dsl -->
<g id="node5" class="node">
<title>dsl</title>
<path fill="#f7eef0" stroke="#8c6b70" d="M639.46,-547.38C639.46,-547.38 540.54,-547.38 540.54,-547.38 534.54,-547.38 528.54,-541.38 528.54,-535.38 528.54,-535.38 528.54,-511.86 528.54,-511.86 528.54,-505.86 534.54,-499.86 540.54,-499.86 540.54,-499.86 639.46,-499.86 639.46,-499.86 645.46,-499.86 651.46,-505.86 651.46,-511.86 651.46,-511.86 651.46,-535.38 651.46,-535.38 651.46,-541.38 645.46,-547.38 639.46,-547.38"/>
<text xml:space="preserve" text-anchor="start" x="538.62" y="-532.12" font-family="Helvetica,sans-Serif" font-size="10.00" fill="#2e1c1f">script engine + recorder</text>
<text xml:space="preserve" text-anchor="start" x="538.62" y="-520.12" font-family="Helvetica,sans-Serif" font-size="10.00" fill="#2e1c1f">src/script (jnext_script)</text>
<text xml:space="preserve" text-anchor="start" x="538.62" y="-508.12" font-family="Helvetica,sans-Serif" font-size="10.00" fill="#2e1c1f">&#45;&#45;script &#160;&#45;&#45;record&#45;script</text>
</g>
<!-- dsl&#45;&gt;facade -->
<g id="edge6" class="edge">
<title>dsl&#45;&gt;facade</title>
<path fill="none" stroke="#8c6b70" d="M562.43,-499.48C549.65,-488.57 534.36,-475.25 521,-462.86 474.54,-419.79 467.39,-404.01 418,-364.34 413.54,-360.76 408.85,-357.13 404.08,-353.56"/>
<polygon fill="#8c6b70" stroke="#8c6b70" points="406.23,-350.8 396.11,-347.68 402.08,-356.43 406.23,-350.8"/>
</g>
<!-- transport&#45;&gt;facade -->
<g id="edge5" class="edge">
<title>transport&#45;&gt;facade</title>
<path fill="none" stroke="#8c6b70" d="M348,-414.78C348,-399.92 348,-377.86 348,-358.23"/>
<polygon fill="#8c6b70" stroke="#8c6b70" points="351.5,-358.24 348,-348.24 344.5,-358.24 351.5,-358.24"/>
<text xml:space="preserve" text-anchor="middle" x="380.62" y="-371.54" font-family="Helvetica,sans-Serif" font-size="9.00" fill="#5a3f43"> pump() drives it</text>
</g>
<!-- impl -->
<g id="node8" class="node">
<title>impl</title>
<path fill="#f7eef0" stroke="#8c6b70" d="M416.2,-226.06C416.2,-226.06 255.8,-226.06 255.8,-226.06 249.8,-226.06 243.8,-220.06 243.8,-214.06 243.8,-214.06 243.8,-190.54 243.8,-190.54 243.8,-184.54 249.8,-178.54 255.8,-178.54 255.8,-178.54 416.2,-178.54 416.2,-178.54 422.2,-178.54 428.2,-184.54 428.2,-190.54 428.2,-190.54 428.2,-214.06 428.2,-214.06 428.2,-220.06 422.2,-226.06 416.2,-226.06"/>
<text xml:space="preserve" text-anchor="start" x="253.88" y="-210.8" font-family="Helvetica,sans-Serif" font-size="10.00" fill="#2e1c1f">Debugger::Impl</text>
<text xml:space="preserve" text-anchor="start" x="253.88" y="-198.8" font-family="Helvetica,sans-Serif" font-size="10.00" fill="#2e1c1f">clients · listeners · services</text>
<text xml:space="preserve" text-anchor="start" x="253.88" y="-186.8" font-family="Helvetica,sans-Serif" font-size="10.00" fill="#2e1c1f">stop evidence · bookmarks · captures</text>
</g>
<!-- facade&#45;&gt;impl -->
<g id="edge7" class="edge">
<title>facade&#45;&gt;impl</title>
<path fill="none" stroke="#8c6b70" d="M344.5,-280.76C342.59,-263.36 340.27,-242.21 338.53,-226.41"/>
</g>
<!-- table -->
<g id="node9" class="node">
<title>table</title>
<path fill="#f7eef0" stroke="#8c6b70" d="M217.08,-141.54C217.08,-141.54 70.92,-141.54 70.92,-141.54 64.92,-141.54 58.92,-135.54 58.92,-129.54 58.92,-129.54 58.92,-106.02 58.92,-106.02 58.92,-100.02 64.92,-94.02 70.92,-94.02 70.92,-94.02 217.08,-94.02 217.08,-94.02 223.08,-94.02 229.08,-100.02 229.08,-106.02 229.08,-106.02 229.08,-129.54 229.08,-129.54 229.08,-135.54 223.08,-141.54 217.08,-141.54"/>
<text xml:space="preserve" text-anchor="start" x="69" y="-126.28" font-family="Helvetica,sans-Serif" font-size="10.00" fill="#2e1c1f">EventTable</text>
<text xml:space="preserve" text-anchor="start" x="69" y="-114.28" font-family="Helvetica,sans-Serif" font-size="10.00" fill="#2e1c1f">subscriptions · 512&#45;entry latch ring</text>
<text xml:space="preserve" text-anchor="start" x="69" y="-102.28" font-family="Helvetica,sans-Serif" font-size="10.00" fill="#2e1c1f">delivery history</text>
</g>
<!-- impl&#45;&gt;table -->
<g id="edge8" class="edge">
<title>impl&#45;&gt;table</title>
<path fill="none" stroke="#8c6b70" d="M282.01,-178.09C255.72,-166.8 224.2,-153.25 197.92,-141.95"/>
</g>
<!-- state -->
<g id="node10" class="node">
<title>state</title>
<path fill="#f7eef0" stroke="#8c6b70" d="M389.33,-141.54C389.33,-141.54 262.67,-141.54 262.67,-141.54 256.67,-141.54 250.67,-135.54 250.67,-129.54 250.67,-129.54 250.67,-106.02 250.67,-106.02 250.67,-100.02 256.67,-94.02 262.67,-94.02 262.67,-94.02 389.33,-94.02 389.33,-94.02 395.33,-94.02 401.33,-100.02 401.33,-106.02 401.33,-106.02 401.33,-129.54 401.33,-129.54 401.33,-135.54 395.33,-141.54 389.33,-141.54"/>
<text xml:space="preserve" text-anchor="start" x="260.75" y="-126.28" font-family="Helvetica,sans-Serif" font-size="10.00" fill="#2e1c1f">DebugState + BreakpointSet</text>
<text xml:space="preserve" text-anchor="start" x="260.75" y="-114.28" font-family="Helvetica,sans-Serif" font-size="10.00" fill="#2e1c1f">pause · step modes · arm bits</text>
<text xml:space="preserve" text-anchor="start" x="260.75" y="-102.28" font-family="Helvetica,sans-Serif" font-size="10.00" fill="#2e1c1f">slot masks · step&#45;off</text>
</g>
<!-- impl&#45;&gt;state -->
<g id="edge9" class="edge">
<title>impl&#45;&gt;state</title>
<path fill="none" stroke="#8c6b70" d="M333.21,-178.31C331.84,-166.96 330.18,-153.3 328.81,-141.93"/>
</g>
<!-- prims -->
<g id="node11" class="node">
<title>prims</title>
<path fill="#f7eef0" stroke="#8c6b70" d="M590.96,-135.78C590.96,-135.78 435.05,-135.78 435.05,-135.78 429.05,-135.78 423.05,-129.78 423.05,-123.78 423.05,-123.78 423.05,-111.78 423.05,-111.78 423.05,-105.78 429.05,-99.78 435.05,-99.78 435.05,-99.78 590.96,-99.78 590.96,-99.78 596.96,-99.78 602.96,-105.78 602.96,-111.78 602.96,-111.78 602.96,-123.78 602.96,-123.78 602.96,-129.78 596.96,-135.78 590.96,-135.78"/>
<text xml:space="preserve" text-anchor="start" x="433.12" y="-120.28" font-family="Helvetica,sans-Serif" font-size="10.00" fill="#2e1c1f">TraceLog · CallStack · SymbolTable</text>
<text xml:space="preserve" text-anchor="start" x="433.12" y="-108.28" font-family="Helvetica,sans-Serif" font-size="10.00" fill="#2e1c1f">RewindBuffer · disasm · raster_state</text>
</g>
<!-- impl&#45;&gt;prims -->
<g id="edge10" class="edge">
<title>impl&#45;&gt;prims</title>
<path fill="none" stroke="#8c6b70" d="M385.78,-178.09C414.3,-164.79 449.52,-148.38 475.66,-136.19"/>
</g>
<!-- emu -->
<g id="node12" class="node">
<title>emu</title>
<path fill="#e9d3d6" stroke="#8c6b70" d="M474.83,-47.52C474.83,-47.52 177.17,-47.52 177.17,-47.52 171.17,-47.52 165.17,-41.52 165.17,-35.52 165.17,-35.52 165.17,-12 165.17,-12 165.17,-6 171.17,0 177.17,0 177.17,0 474.83,0 474.83,0 480.83,0 486.83,-6 486.83,-12 486.83,-12 486.83,-35.52 486.83,-35.52 486.83,-41.52 480.83,-47.52 474.83,-47.52"/>
<text xml:space="preserve" text-anchor="start" x="175.25" y="-32.26" font-family="Helvetica,sans-Serif" font-size="10.00" fill="#2e1c1f">Emulator — the hook sites</text>
<text xml:space="preserve" text-anchor="start" x="175.25" y="-20.26" font-family="Helvetica,sans-Serif" font-size="10.00" fill="#2e1c1f">instruction boundary · Mmu / port / NextREG / Copper / DMA latches</text>
<text xml:space="preserve" text-anchor="start" x="175.25" y="-8.26" font-family="Helvetica,sans-Serif" font-size="10.00" fill="#2e1c1f">frame edge · cold boot (loop driver)</text>
</g>
<!-- table&#45;&gt;emu -->
<g id="edge11" class="edge">
<title>table&#45;&gt;emu</title>
<path fill="none" stroke="#8c6b70" d="M199.91,-88.51C225.61,-75.52 255.73,-60.29 280.09,-47.97"/>
<polygon fill="#8c6b70" stroke="#8c6b70" points="198.62,-85.24 191.28,-92.88 201.78,-91.49 198.62,-85.24"/>
<text xml:space="preserve" text-anchor="middle" x="271.96" y="-67.47" font-family="Helvetica,sans-Serif" font-size="9.00" fill="#5a3f43"> latch at the site</text>
</g>
<!-- state&#45;&gt;emu -->
<g id="edge12" class="edge">
<title>state&#45;&gt;emu</title>
<path fill="none" stroke="#8c6b70" d="M326,-82.15C326,-70.74 326,-58.33 326,-47.97"/>
<polygon fill="#8c6b70" stroke="#8c6b70" points="322.5,-82.05 326,-92.05 329.5,-82.05 322.5,-82.05"/>
<text xml:space="preserve" text-anchor="middle" x="377" y="-67.47" font-family="Helvetica,sans-Serif" font-size="9.00" fill="#5a3f43"> consulted per instruction</text>
</g>
<!-- owners -->
<g id="node13" class="node">
<title>owners</title>
<path fill="#f5dfe2" stroke="#8c6b70" d="M724.33,-462.86C724.33,-462.86 543.67,-462.86 543.67,-462.86 537.67,-462.86 531.67,-456.86 531.67,-450.86 531.67,-450.86 531.67,-415.34 531.67,-415.34 531.67,-409.34 537.67,-403.34 543.67,-403.34 543.67,-403.34 724.33,-403.34 724.33,-403.34 730.33,-403.34 736.33,-409.34 736.33,-415.34 736.33,-415.34 736.33,-450.86 736.33,-450.86 736.33,-456.86 730.33,-462.86 724.33,-462.86"/>
<text xml:space="preserve" text-anchor="start" x="541.75" y="-447.6" font-family="Helvetica,sans-Serif" font-size="10.00" fill="#2e1c1f">loop owners</text>
<text xml:space="preserve" text-anchor="start" x="541.75" y="-435.6" font-family="Helvetica,sans-Serif" font-size="10.00" fill="#2e1c1f">QtApp · SdlApp · HeadlessApp</text>
<text xml:space="preserve" text-anchor="start" x="541.75" y="-423.6" font-family="Helvetica,sans-Serif" font-size="10.00" fill="#2e1c1f">host Debugger, DebugServers, ScriptHost</text>
<text xml:space="preserve" text-anchor="start" x="541.75" y="-411.6" font-family="Helvetica,sans-Serif" font-size="10.00" fill="#2e1c1f">run_frame(), then pump()</text>
</g>
<!-- owners&#45;&gt;facade -->
<g id="edge13" class="edge">
<title>owners&#45;&gt;facade</title>
<path fill="none" stroke="#8c6b70" stroke-dasharray="5,2" d="M567.07,-402.9C556.06,-397.44 544.94,-391.5 534.75,-385.34 521.52,-377.33 520.75,-371.42 507,-364.34 497.55,-359.48 487.54,-354.99 477.33,-350.87"/>
<polygon fill="#8c6b70" stroke="#8c6b70" points="478.62,-347.62 468.03,-347.25 476.08,-354.14 478.62,-347.62"/>
<text xml:space="preserve" text-anchor="start" x="534.75" y="-376.79" font-family="Helvetica,sans-Serif" font-size="9.00" fill="#5a3f43"> pump · LoopDriver</text>
<text xml:space="preserve" text-anchor="start" x="534.75" y="-366.29" font-family="Helvetica,sans-Serif" font-size="9.00" fill="#5a3f43"> cold&#45;boot begin/done</text>
</g>
<!-- owners&#45;&gt;emu -->
<g id="edge14" class="edge">
<title>owners&#45;&gt;emu</title>
<path fill="none" stroke="#8c6b70" stroke-dasharray="5,2" d="M636.69,-403.18C638.66,-379.44 641,-344.92 641,-314.7 641,-314.7 641,-314.7 641,-116.78 641,-82.57 571.68,-60.21 498.07,-46.1"/>
<polygon fill="#8c6b70" stroke="#8c6b70" points="499.15,-42.74 488.68,-44.36 497.87,-49.62 499.15,-42.74"/>
<text xml:space="preserve" text-anchor="middle" x="666.12" y="-199" font-family="Helvetica,sans-Serif" font-size="9.00" fill="#5a3f43"> run_frame()</text>
</g>
</g>
</svg>
